<svg width="89" height="85" viewBox="0 0 89 85" fill="none" xmlns="http://www.w3.org/2000/svg">
<path d="M51.5072 0.0742266C53.1409 -0.271802 54.9847 0.61665 55.5541 2.22522C56.1516 3.72156 55.3394 5.2366 54.8446 6.63007C53.715 9.44506 52.9215 12.391 51.6565 15.1499C50.723 17.2728 47.5816 17.5767 46.0879 15.898C45.0983 14.9441 44.8649 13.4291 45.3831 12.1759C46.62 8.88393 47.6983 5.52652 49.0379 2.27198C49.43 1.18713 50.3449 0.279973 51.5072 0.0742266ZM19.6964 1.97271C21.2367 1.28533 23.0711 2.17845 23.818 3.60465C25.8858 6.97142 27.8696 10.3943 30.2315 13.5647C31.1884 14.743 31.8232 16.4498 30.9923 17.8666C29.9748 20.0036 26.6653 20.4993 25.2183 18.5634C22.7771 15.4725 20.8166 12.0449 18.7068 8.72494C18.0206 7.60736 17.2458 6.40094 17.3391 5.02618C17.3671 3.63271 18.4127 2.41226 19.6964 1.97271ZM73.9171 17.8713C76.0596 16.4171 79.2664 18.3249 79.0936 20.8921C79.229 22.6175 77.768 23.7819 76.531 24.6984C74.0665 26.4472 71.4992 28.0558 69.0626 29.842C68.0264 30.5434 66.8081 31.4272 65.4824 31.0344C63.7134 30.651 62.4064 28.7946 62.7565 26.9896C62.9012 25.6102 64.0681 24.7498 65.1044 24.011C68.031 21.9442 71.0698 20.041 73.9171 17.8713ZM26.2499 28.5561C28.6165 25.685 31.7952 23.3423 35.4874 22.5801C40.5846 21.5467 46.1299 22.178 50.6623 24.834C55.204 27.2936 59.0783 31.2823 60.6046 36.309C62.7471 42.2243 62.3457 49.1963 58.5928 54.382C57.1785 56.187 55.6148 58.4128 53.1596 58.7074C50.3589 58.7588 48.4358 54.9759 50.5269 52.9231C53.3883 50.4401 55.3161 46.6992 54.9006 42.8415C54.5645 39.7553 53.6357 36.5802 51.5352 34.2188C48.0437 30.5715 42.8438 28.3644 37.7746 29.2856C35.282 29.5521 33.2142 31.17 31.6505 33.0358C29.0225 35.9443 27.8416 39.9844 28.0236 43.8609C28.0843 46.1475 29.6667 47.9898 31.1977 49.5236C33.5036 51.8149 36.7337 53.5216 40.0571 53.0821C42.4564 52.5911 43.7914 50.2063 44.0574 47.9337C44.7109 45.1281 42.4377 42.6404 40.1272 41.4621C38.8155 41.9624 38.0407 43.1969 37.3778 44.3612C38.4701 45.1281 39.7911 46.0446 39.7817 47.5456C40.0618 49.7013 38.008 51.7775 35.8421 51.3473C32.36 50.6646 29.9094 46.9097 30.6143 43.426C31.011 40.0733 33.4336 37.4266 36.1175 35.603C38.8202 33.8681 42.4844 34.2749 45.005 36.1594C47.5489 38.0018 49.7521 40.5549 50.6996 43.5897C52.1046 49.2851 49.7894 56.1028 44.4168 58.8851C39.4783 61.4709 33.3776 59.8998 29.0319 56.8182C25.2323 54.0453 21.7128 50.1221 21.1527 45.2637C20.4899 39.3251 22.343 33.0966 26.2499 28.5561ZM2.43963 30.4312C4.19471 30.0431 5.95913 30.7024 7.6862 30.9737C10.2441 31.5488 12.8534 31.8808 15.416 32.4092C17.3111 32.8441 18.3614 34.9951 17.7779 36.8047C17.3905 38.4507 15.5934 39.4794 13.9643 39.1942C10.5242 38.8107 7.15874 37.9644 3.7466 37.3799C2.45363 37.1928 1.0253 36.6644 0.432493 35.3972C-0.664432 33.5969 0.441828 30.9924 2.43963 30.4312ZM70.1595 45.909C71.7933 45.0907 73.5857 45.8389 75.1681 46.3953C78.5428 47.41 81.9597 48.2798 85.4045 49.0139C86.8141 49.2337 88.0231 50.3559 88.2611 51.7775C88.7559 53.9658 86.6928 56.3366 84.4336 55.9391C80.5313 55.2564 76.7178 54.1295 72.8995 53.0821C71.4198 52.5069 69.4594 52.3199 68.7079 50.7113C67.7463 49.084 68.4231 46.6992 70.1595 45.909ZM13.6983 54.382C16.653 53.4889 19.2296 57.4074 17.3298 59.8109C15.7614 61.4429 13.5722 62.2752 11.7705 63.6219C10.0201 64.6694 8.33502 66.5491 6.08982 66.0301C3.36852 65.5485 2.47231 61.4148 4.81552 59.8857C7.6862 57.9312 10.5055 55.7708 13.6983 54.382ZM56.5904 62.5745C58.1727 61.9759 60.1565 62.5698 60.9034 64.1503C62.5371 67.1991 63.9981 70.3367 65.7999 73.292C66.584 74.7276 67.751 76.1818 67.4756 77.926C67.2049 79.932 64.9457 81.3255 63.0272 80.7129C61.9303 80.3622 61.1648 79.4364 60.6326 78.4591C59.0316 75.5412 57.3419 72.6748 55.8809 69.6868C55.232 68.312 54.2285 66.9373 54.4292 65.338C54.5225 64.0849 55.5214 63.1029 56.5904 62.5745ZM32.7568 66.3855C35.0253 65.3942 37.98 67.4797 37.4805 70.0047C36.9297 73.8765 36.6637 77.7764 36.1409 81.6481C35.9962 82.9902 35.2213 84.3416 33.877 84.7531C32.1173 85.5199 29.9048 84.4164 29.3353 82.6067C29.0926 81.5312 29.2606 80.4277 29.382 79.3475C29.8301 76.107 29.9748 72.8291 30.5069 69.5979C30.7076 68.2606 31.4591 66.9092 32.7568 66.3855Z" fill="#FFBC00"/>
</svg>
